<?xml version="1.0" encoding="UTF-8"?>
<svg version="1.1" viewBox="0 0 2048 2048" width="750" height="750" xmlns="http://www.w3.org/2000/svg">
<path transform="translate(1548,716)" d="m0 0h4l-1 6-11 22-15 35-8 17-14 32-16 36-10 22-7 15-15 34-13 29-12 27-9 20-16 35-13 29-28 63-13 29-16 35-14 32-18 41-18 40-4 9-2 6-16 1h-126l-6-2-7-6-7-12-7-16-9-19-9-20-30-60-16-36-13-25-13-29-8-16-14-29-11-23-8-16-13-28-8-16-11-23-8-16-10-15-8-10-5-4-5-5-12-10-21-14-19-9-22-6-18-3h-31l-21 3-24 7-17 8-13 8-15 10-13 11-9 10-10 14-11 21-9 23-3 12-2 23v194l-2 62-3 16-4 10-9 14-11 11-13 8-14 5-10 2h-18l-16-4-14-7-10-8-9-10-6-10-5-12-3-15v-193l1-71 2-26 4-22 6-23 10-27 10-22 12-22 16-23 9-12 12-13 22-22 11-9 17-13 15-10 22-12 14-7 23-9 27-8 19-5 18-2 18-1h45l23 2 30 7 27 9 24 11 25 13 18 12 15 11 13 11 12 11 13 13 7 8 11 14 14 20 11 18 9 17 13 29 10 22 9 21 16 35 15 32 11 26 16 35 16 36 8 17 7 11 5-9 4-5 5-13 12-26 4-10 8-17 4-11 6-13 16-36 10-24 9-21 6-12 12-28 13-30 26-58 9-20 11-26 9-20 8-14 8-10 5-6 8-7 11-8 18-10 15-5 15-2z" fill="#000000"/>
<path transform="translate(1162,1082)" d="m0 0 2 1 16 36 13 28 2 5-4-4-8-16-10-23-7-15-4-10z" fill="#000000"/>
<path transform="translate(872,720)" d="m0 0h5v1h-5z" fill="#000000"/>
<path transform="translate(972,766)" d="m0 0 3 1h-3z" fill="#000000"/>
<path transform="translate(885,723)" d="m0 0 4 1z" fill="#000000"/>
<path transform="translate(892,725)" d="m0 0 3 1z" fill="#000000"/>
<path transform="translate(889,724)" d="m0 0 3 1z" fill="#000000"/>
<path transform="translate(882,722)" d="m0 0 3 1z" fill="#000000"/>
<path transform="translate(1158,1063)" d="m0 0" fill="#000000"/>
<path transform="translate(1157,1061)" d="m0 0" fill="#000000"/>
<path transform="translate(1150,1045)" d="m0 0" fill="#000000"/>
<path transform="translate(976,769)" d="m0 0 2 1z" fill="#000000"/>
<path transform="translate(963,760)" d="m0 0 2 1z" fill="#000000"/>
<path transform="translate(950,752)" d="m0 0 2 1z" fill="#000000"/>
<path transform="translate(936,744)" d="m0 0 2 1z" fill="#000000"/>
<path transform="translate(934,743)" d="m0 0 2 1z" fill="#000000"/>
<path transform="translate(920,736)" d="m0 0 2 1z" fill="#000000"/>
<path transform="translate(918,735)" d="m0 0 2 1z" fill="#000000"/>
<path transform="translate(915,734)" d="m0 0 2 1z" fill="#000000"/>
<path transform="translate(913,733)" d="m0 0 2 1z" fill="#000000"/>
<path transform="translate(910,732)" d="m0 0 2 1z" fill="#000000"/>
<path transform="translate(898,727)" d="m0 0 2 1z" fill="#000000"/>
<path transform="translate(895,726)" d="m0 0 2 1z" fill="#000000"/>
<path transform="translate(878,721)" d="m0 0 2 1z" fill="#000000"/>
<path transform="translate(868,719)" d="m0 0 2 1z" fill="#000000"/>
<path transform="translate(1159,1066)" d="m0 0" fill="#000000"/>
<path transform="translate(1151,1048)" d="m0 0" fill="#000000"/>
<path transform="translate(1149,1043)" d="m0 0" fill="#000000"/>
<path transform="translate(1065,860)" d="m0 0" fill="#000000"/>
<path transform="translate(1060,852)" d="m0 0" fill="#000000"/>
<path transform="translate(1059,851)" d="m0 0" fill="#000000"/>
<path transform="translate(1058,850)" d="m0 0" fill="#000000"/>
<path transform="translate(1057,848)" d="m0 0" fill="#000000"/>
<path transform="translate(1056,847)" d="m0 0" fill="#000000"/>
<path transform="translate(1054,844)" d="m0 0" fill="#000000"/>
<path transform="translate(1053,843)" d="m0 0" fill="#000000"/>
<path transform="translate(1052,842)" d="m0 0" fill="#000000"/>
<path transform="translate(1051,840)" d="m0 0" fill="#000000"/>
<path transform="translate(1050,839)" d="m0 0" fill="#000000"/>
<path transform="translate(1020,804)" d="m0 0" fill="#000000"/>
<path transform="translate(987,777)" d="m0 0" fill="#000000"/>
<path transform="translate(986,776)" d="m0 0" fill="#000000"/>
<path transform="translate(983,774)" d="m0 0" fill="#000000"/>
<path transform="translate(980,772)" d="m0 0" fill="#000000"/>
<path transform="translate(979,771)" d="m0 0" fill="#000000"/>
<path transform="translate(978,770)" d="m0 0" fill="#000000"/>
<path transform="translate(975,768)" d="m0 0" fill="#000000"/>
<path transform="translate(971,765)" d="m0 0" fill="#000000"/>
<path transform="translate(970,764)" d="m0 0" fill="#000000"/>
<path transform="translate(967,762)" d="m0 0" fill="#000000"/>
<path transform="translate(965,761)" d="m0 0" fill="#000000"/>
<path transform="translate(962,759)" d="m0 0" fill="#000000"/>
<path transform="translate(961,758)" d="m0 0" fill="#000000"/>
<path transform="translate(948,751)" d="m0 0" fill="#000000"/>
<path transform="translate(931,741)" d="m0 0" fill="#000000"/>
<path transform="translate(929,740)" d="m0 0" fill="#000000"/>
<path transform="translate(925,738)" d="m0 0" fill="#000000"/>
<path transform="translate(923,737)" d="m0 0" fill="#000000"/>
<path transform="translate(908,731)" d="m0 0" fill="#000000"/>
<path transform="translate(906,730)" d="m0 0" fill="#000000"/>
<path transform="translate(901,728)" d="m0 0" fill="#000000"/>
</svg>
